<svg xmlns="http://www.w3.org/2000/svg" version="1.1" width="298.7mm" height="100.7mm" viewBox = " 0 0 1058.386697 356.81131700000003" >
<!-- Front--> 
<g transform="translate(22.5000185, 22.5000185) " > 
<polygon style="stroke:#000000; fill:none; stroke-width:0.90000074" points="0, 0 31.889789999999998, 0 31.889789999999998, 10.62993 63.779579999999996, 10.62993 63.779579999999996, 0 85.03944, 0 85.03944, 10.62993 106.29929999999999, 10.62993 106.29929999999999, 0 127.55915999999999, 0 127.55915999999999, 10.62993 148.81902, 10.62993 148.81902, 0 170.07888, 0 170.07888, 10.62993 191.33873999999997, 10.62993 191.33873999999997, 0 212.59859999999998, 0 212.59859999999998, 10.62993 233.85845999999998, 10.62993 233.85845999999998, 0 255.11831999999998, 0 255.11831999999998, 10.62993 276.37818, 10.62993 276.37818, 0 297.63804, 0 297.63804, 10.62993 318.8979, 10.62993 318.8979, 0 340.15776, 0 340.15776, 10.62993 372.04755, 10.62993 372.04755, 0 403.93734, 0 403.93734, 21.25986 393.30741, 21.25986 393.30741, 42.51972 403.93734, 42.51972 403.93734, 63.779579999999996 393.30741, 63.779579999999996 393.30741, 85.03944 403.93734, 85.03944 403.93733999999995, 106.2993 372.04755, 106.2993 372.04755, 95.66937 340.15776, 95.66937 340.15776, 106.2993 318.8979, 106.2993 318.8979, 95.66937 297.63804, 95.66937 297.63804, 106.2993 276.37818, 106.2993 276.37818, 95.66937 255.11831999999998, 95.66937 255.11831999999998, 106.2993 233.85845999999998, 106.2993 233.85845999999998, 95.66937 212.59859999999998, 95.66937 212.59859999999998, 106.2993 191.33873999999997, 106.2993 191.33873999999997, 95.66937 170.07888, 95.66937 170.07888, 106.2993 148.81902, 106.2993 148.81902, 95.66937 127.55915999999999, 95.66937 127.55915999999999, 106.2993 106.29929999999999, 106.2993 106.29929999999999, 95.66937 85.03944, 95.66937 85.03944, 106.2993 63.779579999999996, 106.2993 63.779579999999996, 95.66937 31.889789999999998, 95.66937 31.889789999999998, 106.2993 0, 106.2993 0, 85.03944 10.62993, 85.03944 10.62993, 63.779579999999996 0, 63.779579999999996 0, 42.51972 10.62993, 42.51972 10.62993, 21.25986 0, 21.25986 "/> 
</g>
<!-- Back--> 
<g transform="translate(426.43735849999996, 22.5000185) " > 
<polygon style="stroke:#000000; fill:none; stroke-width:0.90000074" points="0, 0 31.889789999999998, 0 31.889789999999998, 10.62993 63.779579999999996, 10.62993 63.779579999999996, 0 85.03944, 0 85.03944, 10.62993 106.29929999999999, 10.62993 106.29929999999999, 0 127.55915999999999, 0 127.55915999999999, 10.62993 148.81902, 10.62993 148.81902, 0 170.07888, 0 170.07888, 10.62993 191.33873999999997, 10.62993 191.33873999999997, 0 212.59859999999998, 0 212.59859999999998, 10.62993 233.85845999999998, 10.62993 233.85845999999998, 0 255.11831999999998, 0 255.11831999999998, 10.62993 276.37818, 10.62993 276.37818, 0 297.63804, 0 297.63804, 10.62993 318.8979, 10.62993 318.8979, 0 340.15776, 0 340.15776, 10.62993 372.04755, 10.62993 372.04755, 0 403.93734, 0 403.93734, 21.25986 393.30741, 21.25986 393.30741, 42.51972 403.93734, 42.51972 403.93734, 63.779579999999996 393.30741, 63.779579999999996 393.30741, 85.03944 403.93734, 85.03944 403.93733999999995, 106.2993 372.04755, 106.2993 372.04755, 95.66937 340.15776, 95.66937 340.15776, 106.2993 318.8979, 106.2993 318.8979, 95.66937 297.63804, 95.66937 297.63804, 106.2993 276.37818, 106.2993 276.37818, 95.66937 255.11831999999998, 95.66937 255.11831999999998, 106.2993 233.85845999999998, 106.2993 233.85845999999998, 95.66937 212.59859999999998, 95.66937 212.59859999999998, 106.2993 191.33873999999997, 106.2993 191.33873999999997, 95.66937 170.07888, 95.66937 170.07888, 106.2993 148.81902, 106.2993 148.81902, 95.66937 127.55915999999999, 95.66937 127.55915999999999, 106.2993 106.29929999999999, 106.2993 106.29929999999999, 95.66937 85.03944, 95.66937 85.03944, 106.2993 63.779579999999996, 106.2993 63.779579999999996, 95.66937 31.889789999999998, 95.66937 31.889789999999998, 106.2993 0, 106.2993 0, 85.03944 10.62993, 85.03944 10.62993, 63.779579999999996 0, 63.779579999999996 0, 42.51972 10.62993, 42.51972 10.62993, 21.25986 0, 21.25986 "/> 
</g>
<!-- Left--> 
<g transform="translate(830.3746985, 22.5000185) " > 
<polygon style="stroke:#000000; fill:none; stroke-width:0.90000074" points="10.62993, 0 35.433099999999996, 0 35.433099999999996, 10.62993 70.86619999999999, 10.62993 70.86619999999999, 0 92.12606, 0 92.12606, 10.62993 113.38592, 10.62993 113.38592, 0 134.64578, 0 134.64578, 10.62993 170.07887999999997, 10.62993 170.07887999999997, 0 194.88205, 0 194.88205, 21.25986 205.51198, 21.25986 205.51198, 42.51972 194.88205, 42.51972 194.88205, 63.779579999999996 205.51198, 63.779579999999996 205.51198, 85.03944 194.88205, 85.03944 194.88205, 106.2993 170.07887999999997, 106.2993 170.07887999999997, 95.66937 134.64578, 95.66937 134.64578, 106.2993 113.38592, 106.2993 113.38592, 95.66937 92.12606, 95.66937 92.12606, 106.2993 70.86619999999999, 106.2993 70.86619999999999, 95.66937 35.433099999999996, 95.66937 35.433099999999996, 106.2993 10.62993, 106.2993 10.62993, 85.03944 0, 85.03944 0, 63.779579999999996 10.62993, 63.779579999999996 10.62993, 42.51972 0, 42.51972 0, 21.25986 10.62993, 21.25986 "/> 
</g>
<!-- Right--> 
<g transform="translate(830.3746985, 128.7993185) " > 
<polygon style="stroke:#000000; fill:none; stroke-width:0.90000074" points="10.62993, 0 35.433099999999996, 0 35.433099999999996, 10.62993 70.86619999999999, 10.62993 70.86619999999999, 0 92.12606, 0 92.12606, 10.62993 113.38592, 10.62993 113.38592, 0 134.64578, 0 134.64578, 10.62993 170.07887999999997, 10.62993 170.07887999999997, 0 194.88205, 0 194.88205, 21.25986 205.51198, 21.25986 205.51198, 42.51972 194.88205, 42.51972 194.88205, 63.779579999999996 205.51198, 63.779579999999996 205.51198, 85.03944 194.88205, 85.03944 194.88205, 106.2993 170.07887999999997, 106.2993 170.07887999999997, 95.66937 134.64578, 95.66937 134.64578, 106.2993 113.38592, 106.2993 113.38592, 95.66937 92.12606, 95.66937 92.12606, 106.2993 70.86619999999999, 106.2993 70.86619999999999, 95.66937 35.433099999999996, 95.66937 35.433099999999996, 106.2993 10.62993, 106.2993 10.62993, 85.03944 0, 85.03944 0, 63.779579999999996 10.62993, 63.779579999999996 10.62993, 42.51972 0, 42.51972 0, 21.25986 10.62993, 21.25986 "/> 
</g>
<!-- Top--> 
<g transform="translate(22.5000185, 128.7993185) " > 
<polygon style="stroke:#000000; fill:none; stroke-width:0.90000074" points="10.62993, 10.62993 31.889789999999998, 10.62993 31.889789999999998, 0 63.779579999999996, 0 63.779579999999996, 10.62993 85.03944, 10.62993 85.03944, 0 106.29929999999999, 0 106.29929999999999, 10.62993 127.55915999999999, 10.62993 127.55915999999999, 0 148.81902, 0 148.81902, 10.62993 170.07888, 10.62993 170.07888, 0 191.33873999999997, 0 191.33873999999997, 10.62993 212.59859999999998, 10.62993 212.59859999999998, 0 233.85845999999998, 0 233.85845999999998, 10.62993 255.11831999999998, 10.62993 255.11831999999998, 0 276.37818, 0 276.37818, 10.62993 297.63804, 10.62993 297.63804, 0 318.8979, 0 318.8979, 10.62993 340.15776, 10.62993 340.15776, 0 372.04755, 0 372.04755, 10.62993 393.30741, 10.62993 393.30741, 35.433099999999996 403.93734, 35.433099999999996 403.93734, 70.86619999999999 393.30741, 70.86619999999999 393.30741, 92.12606 403.93734, 92.12606 403.93734, 113.38592 393.30741, 113.38592 393.30741, 134.64578 403.93734, 134.64578 403.93734, 170.07887999999997 393.30741, 170.07887999999997 393.30740999999995, 194.88205 372.04755, 194.88205 372.04755, 205.51198 340.15776, 205.51198 340.15776, 194.88205 318.8979, 194.88205 318.8979, 205.51198 297.63804, 205.51198 297.63804, 194.88205 276.37818, 194.88205 276.37818, 205.51198 255.11831999999998, 205.51198 255.11831999999998, 194.88205 233.85845999999998, 194.88205 233.85845999999998, 205.51198 212.59859999999998, 205.51198 212.59859999999998, 194.88205 191.33873999999997, 194.88205 191.33873999999997, 205.51198 170.07888, 205.51198 170.07888, 194.88205 148.81902, 194.88205 148.81902, 205.51198 127.55915999999999, 205.51198 127.55915999999999, 194.88205 106.29929999999999, 194.88205 106.29929999999999, 205.51198 85.03944, 205.51198 85.03944, 194.88205 63.779579999999996, 194.88205 63.779579999999996, 205.51198 31.889789999999998, 205.51198 31.889789999999998, 194.88205 10.62993, 194.88205 10.62993, 170.07887999999997 0, 170.07887999999997 0, 134.64578 10.62993, 134.64578 10.62993, 113.38592 0, 113.38592 0, 92.12606 10.62993, 92.12606 10.62993, 70.86619999999999 0, 70.86619999999999 0, 35.433099999999996 10.62993, 35.433099999999996 "/> 
 
 <g transform="scale(0.02197267431640625)" ><g transform="translate(-6282.5,819)" ><path transform="translate(9191.811023622047, 4676.535433070866)rotate(180) scale(-1, 1)" stroke-width="0" fill="#000000" d="M1120 0l-182 465h-586l-180 -465h-172l578 1468h143l575 -1468h-176zM885 618l-170 453.001c-22 57.333 -44.667 127.666 -68 210.999c-14.667 -64 -35.667 -134.333 -63 -211l-172 -453h473z"/>
<path transform="translate(10487.811023622047, 4676.535433070866)rotate(180) scale(-1, 1)" stroke-width="0" fill="#000000" d="M530 117c29.333 0 57.667 2.16797 85 6.50098s49 8.83301 65 13.5v-127c-18 -8.66699 -44.5 -15.834 -79.5 -21.501s-66.5 -8.5 -94.5 -8.5c-212 0 -318 111.667 -318 335v652h-157v80l157 69l70 234h96v-254h318v-129h-318v-645c0 -66 15.667 -116.667 47 -152 s74.333 -53 129 -53z"/>
<path transform="translate(11210.811023622047, 4676.535433070866)rotate(180) scale(-1, 1)" stroke-width="0" fill="#000000" d="M530 117c29.333 0 57.667 2.16797 85 6.50098s49 8.83301 65 13.5v-127c-18 -8.66699 -44.5 -15.834 -79.5 -21.501s-66.5 -8.5 -94.5 -8.5c-212 0 -318 111.667 -318 335v652h-157v80l157 69l70 234h96v-254h318v-129h-318v-645c0 -66 15.667 -116.667 47 -152 s74.333 -53 129 -53z"/>
<path transform="translate(11933.811023622047, 4676.535433070866)rotate(180) scale(-1, 1)" stroke-width="0" fill="#000000" d="M342 0h-166v1096h166v-1096zM162 1393c0 38 9.33301 65.833 28 83.5s42 26.5 70 26.5c26.667 0 49.667 -9 69 -27s29 -45.667 29 -83s-9.66699 -65.166 -29 -83.499s-42.333 -27.5 -69 -27.5c-28 0 -51.333 9.16699 -70 27.5s-28 46.166 -28 83.499z"/>
<path transform="translate(12451.811023622047, 4676.535433070866)rotate(180) scale(-1, 1)" stroke-width="0" fill="#000000" d="M926 0l0.00195312 709c0 89.333 -20.333 156 -61 200s-104.334 66 -191.001 66c-114.667 0 -198.667 -31 -252 -93s-80 -164.333 -80 -307v-575h-166v1096h135l27 -150h8c34 54 81.667 95.833 143 125.5s129.666 44.5 204.999 44.5c132 0 231.333 -31.833 298 -95.5 s100 -165.5 100 -305.5v-715h-166z"/>
<path transform="translate(13708.811023622047, 4676.535433070866)rotate(180) scale(-1, 1)" stroke-width="0" fill="#000000" d="M2 1096h177.998l240 -625c52.667 -142.667 85.334 -245.667 98.001 -309h8c8.66699 34 26.834 92.167 54.501 174.5s118.167 335.5 271.5 759.5h178l-471 -1248c-46.667 -123.333 -101.167 -210.833 -163.5 -262.5s-138.833 -77.5 -229.5 -77.5 c-50.667 0 -100.667 5.66699 -150 17v133c36.667 -8 77.667 -12 123 -12c114 0 195.333 64 244 192l61 156z"/>
<path transform="translate(14740.811023622047, 4676.535433070866)rotate(180) scale(-1, 1)" stroke-width="0" fill="#000000" d=""/>
<path transform="translate(15272.811023622047, 4676.535433070866)rotate(180) scale(-1, 1)" stroke-width="0" fill="#000000" d="M1120 0l-182 465h-586l-180 -465h-172l578 1468h143l575 -1468h-176zM885 618l-170 453.001c-22 57.333 -44.667 127.666 -68 210.999c-14.667 -64 -35.667 -134.333 -63 -211l-172 -453h473z"/>
<path transform="translate(16568.811023622045, 4676.535433070866)rotate(180) scale(-1, 1)" stroke-width="0" fill="#000000" d="M676 1116c48.667 0 92.333 -4 131 -12l-23 -154c-45.333 10 -85.333 15 -120 15c-88.667 0 -164.5 -36 -227.5 -108s-94.5 -161.667 -94.5 -269v-588h-166v1096h137l19 -203h8c40.667 71.333 89.667 126.333 147 165s120.333 58 189 58z"/>
<path transform="translate(17404.811023622045, 4676.535433070866)rotate(180) scale(-1, 1)" stroke-width="0" fill="#000000" d="M614 -20c-158.667 0 -281.502 48.8301 -368.502 146.497s-130.5 235.834 -130.5 414.501c0 183.333 44.167 325 132.5 425s214.166 150 377.499 150c52.667 0 105.334 -5.66699 158.001 -17s94 -24.666 124 -39.999l-51 -141c-36.667 14.667 -76.667 26.834 -120 36.501 s-81.666 14.5 -114.999 14.5c-222.667 0 -334 -142 -334 -426c0 -134.667 27.167 -238 81.5 -310s134.833 -108 241.5 -108c91.333 0 185 19.667 281 59v-147c-73.333 -38 -165.666 -57 -276.999 -57z"/>
<path transform="translate(18379.811023622045, 4676.535433070866)rotate(180) scale(-1, 1)" stroke-width="0" fill="#000000" d="M850 0l-33.001 156h-8c-54.667 -68.667 -109.167 -115.167 -163.5 -139.5s-122.166 -36.5 -203.499 -36.5c-108.667 0 -193.834 28 -255.501 84s-92.5 135.667 -92.5 239c0 221.333 177 337.333 531 348l186 6v68c0 86 -18.5 149.5 -55.5 190.5s-96.167 61.5 -177.5 61.5 c-91.333 0 -194.666 -28 -309.999 -84l-51 127c54 29.333 113.167 52.333 177.5 69s128.833 25 193.5 25c130.667 0 227.5 -29 290.5 -87s94.5 -151 94.5 -279v-748h-123zM474.999 117c103.333 0 184.501 28.333 243.501 85s88.5 136 88.5 238v99l-166 -7 c-132 -4.66699 -227.167 -25.167 -285.5 -61.5s-87.5 -92.833 -87.5 -169.5c0 -60 18.167 -105.667 54.5 -137s87.166 -47 152.499 -47z"/>
<path transform="translate(19352.811023622045, 4676.535433070866)rotate(180) scale(-1, 1)" stroke-width="0" fill="#000000" d="M922 147h-8.99902c-76.667 -111.333 -191.334 -167 -344.001 -167c-143.333 0 -254.833 49 -334.5 147s-119.5 237.333 -119.5 418s40 321 120 421s191.333 150 334 150c148.667 0 262.667 -54 342 -162h13l-7 79l-4 77v446h166v-1556h-135zM590.001 119 c113.333 0 195.501 30.834 246.501 92.501s76.5 161.167 76.5 298.5v35c0 155.333 -25.833 266.166 -77.5 332.499s-134.167 99.5 -247.5 99.5c-97.333 0 -171.833 -37.833 -223.5 -113.5s-77.5 -182.5 -77.5 -320.5c0 -140 25.667 -245.667 77 -317 s126.666 -107 225.999 -107z"/>
<path transform="translate(20607.811023622045, 4676.535433070866)rotate(180) scale(-1, 1)" stroke-width="0" fill="#000000" d="M639 -20c-162 0 -289.833 49.334 -383.5 148.001s-140.5 235.667 -140.5 411c0 176.667 43.5 317 130.5 421s203.833 156 350.5 156c137.333 0 246 -45.167 326 -135.5s120 -209.5 120 -357.5v-105h-755c3.33301 -128.667 35.833 -226.334 97.5 -293.001 s148.5 -100 260.5 -100c118 0 234.667 24.667 350 74v-148c-58.667 -25.333 -114.167 -43.5 -166.5 -54.5s-115.5 -16.5 -189.5 -16.5zM594 977.001c-88 0 -158.167 -28.6689 -210.5 -86.002s-83.166 -136.666 -92.499 -237.999h573c0 104.667 -23.333 184.834 -70 240.501 s-113.334 83.5 -200.001 83.5z"/>
</g></g> 
</g>
<!-- Bottom--> 
<g transform="translate(426.43735849999996, 128.7993185) " > 
<polygon style="stroke:#000000; fill:none; stroke-width:0.90000074" points="10.62993, 10.62993 31.889789999999998, 10.62993 31.889789999999998, 0 63.779579999999996, 0 63.779579999999996, 10.62993 85.03944, 10.62993 85.03944, 0 106.29929999999999, 0 106.29929999999999, 10.62993 127.55915999999999, 10.62993 127.55915999999999, 0 148.81902, 0 148.81902, 10.62993 170.07888, 10.62993 170.07888, 0 191.33873999999997, 0 191.33873999999997, 10.62993 212.59859999999998, 10.62993 212.59859999999998, 0 233.85845999999998, 0 233.85845999999998, 10.62993 255.11831999999998, 10.62993 255.11831999999998, 0 276.37818, 0 276.37818, 10.62993 297.63804, 10.62993 297.63804, 0 318.8979, 0 318.8979, 10.62993 340.15776, 10.62993 340.15776, 0 372.04755, 0 372.04755, 10.62993 393.30741, 10.62993 393.30741, 35.433099999999996 403.93734, 35.433099999999996 403.93734, 70.86619999999999 393.30741, 70.86619999999999 393.30741, 92.12606 403.93734, 92.12606 403.93734, 113.38592 393.30741, 113.38592 393.30741, 134.64578 403.93734, 134.64578 403.93734, 170.07887999999997 393.30741, 170.07887999999997 393.30740999999995, 194.88205 372.04755, 194.88205 372.04755, 205.51198 340.15776, 205.51198 340.15776, 194.88205 318.8979, 194.88205 318.8979, 205.51198 297.63804, 205.51198 297.63804, 194.88205 276.37818, 194.88205 276.37818, 205.51198 255.11831999999998, 205.51198 255.11831999999998, 194.88205 233.85845999999998, 194.88205 233.85845999999998, 205.51198 212.59859999999998, 205.51198 212.59859999999998, 194.88205 191.33873999999997, 194.88205 191.33873999999997, 205.51198 170.07888, 205.51198 170.07888, 194.88205 148.81902, 194.88205 148.81902, 205.51198 127.55915999999999, 205.51198 127.55915999999999, 194.88205 106.29929999999999, 194.88205 106.29929999999999, 205.51198 85.03944, 205.51198 85.03944, 194.88205 63.779579999999996, 194.88205 63.779579999999996, 205.51198 31.889789999999998, 205.51198 31.889789999999998, 194.88205 10.62993, 194.88205 10.62993, 170.07887999999997 0, 170.07887999999997 0, 134.64578 10.62993, 134.64578 10.62993, 113.38592 0, 113.38592 0, 92.12606 10.62993, 92.12606 10.62993, 70.86619999999999 0, 70.86619999999999 0, 35.433099999999996 10.62993, 35.433099999999996 "/> 
</g></svg>